<svg xmlns="http://www.w3.org/2000/svg" enable-background="new 0 0 32 32" viewBox="0 0 32 32"><path d="M2.43866,19.91193c-1.06848,0-1.93732,0.8689-1.93732,1.93732c0,1.06848,0.86884,1.93738,1.93732,1.93738h2.83752l-1.32635,5.30542c-0.12579,0.50232-0.04822,1.02307,0.21808,1.46674c0.26624,0.44409,0.68909,0.7572,1.19049,0.88257C5.51257,31.4801,5.67151,31.5,5.82996,31.5c0.88965,0,1.66254-0.60352,1.87817-1.46814l1.56134-6.24524h9.56805l-1.32635,5.30542c-0.12579,0.50232-0.04822,1.02307,0.21808,1.46674c0.26624,0.44409,0.68909,0.7572,1.19049,0.88257C19.07391,31.4801,19.23285,31.5,19.3913,31.5c0.88965,0,1.66254-0.60352,1.87817-1.46814l1.56134-6.24524h6.73053c1.06848,0,1.93732-0.8689,1.93732-1.93738c0-1.06842-0.86884-1.93732-1.93732-1.93732h-5.76178l1.95551-7.82214h3.80627c1.06848,0,1.93732-0.8689,1.93732-1.93738s-0.86884-1.93732-1.93732-1.93732h-2.83752l1.32635-5.30542c0.12579-0.50232,0.04822-1.02307-0.21808-1.46674c-0.26624-0.44415-0.68909-0.75726-1.19-0.88257C26.14166,0.43262,25.62,0.50928,25.17725,0.77411c-0.44507,0.2663-0.75958,0.69104-0.88538,1.19574l-1.56134,6.24524h-9.56805l1.32635-5.30542c0.12579-0.50232,0.04822-1.02307-0.21808-1.46674c-0.26624-0.44415-0.68909-0.75726-1.19-0.88257c-0.50085-0.12726-1.02118-0.05017-1.46527,0.21375c-0.44464,0.2663-0.75916,0.69104-0.88495,1.19574L9.16919,8.21509H2.43866c-1.06848,0-1.93732,0.86884-1.93732,1.93732s0.86884,1.93738,1.93732,1.93738h5.76178l-1.95551,7.82214H2.43866z M12.19373,12.08978h9.56805l-1.95551,7.82214h-9.56805L12.19373,12.08978z"/></svg>