<svg xmlns="http://www.w3.org/2000/svg" data-name="Layer 1" viewBox="0 0 48 48"><path fill="#f8d770" d="M33,28.5a10.5,10.5,0,0,1-4,8.24V35.5a6.51,6.51,0,0,0-1.9-4.6,6.59,6.59,0,0,0-2.55-1.57A3.48,3.48,0,0,0,26,26.5v-1A3.52,3.52,0,0,0,22.5,22,3.5,3.5,0,0,0,19,25.5v1a3.48,3.48,0,0,0,1.45,2.83A6.5,6.5,0,0,0,16,35.5v1.24a10.49,10.49,0,0,1,2.71-18A10.34,10.34,0,0,1,22.5,18,10.5,10.5,0,0,1,33,28.5Z"/><path fill="none" stroke="#231f20" stroke-linecap="round" stroke-linejoin="round" stroke-width="2" d="M16,36.77l0,0V35.5a6.5,6.5,0,0,1,4.45-6.17,3.47,3.47,0,0,0,4.1,0A6.59,6.59,0,0,1,27.1,30.9,6.51,6.51,0,0,1,29,35.5v1.24l0,0"/><circle cx="11" cy="11" r="5" fill="none" stroke="#231f20" stroke-linecap="round" stroke-linejoin="round" stroke-width="2"/><circle cx="38" cy="10" r="4" fill="none" stroke="#231f20" stroke-linecap="round" stroke-linejoin="round" stroke-width="2"/><circle cx="8" cy="40" r="2" fill="none" stroke="#231f20" stroke-linecap="round" stroke-linejoin="round" stroke-width="2"/><circle cx="39" cy="39" r="3" fill="none" stroke="#231f20" stroke-linecap="round" stroke-linejoin="round" stroke-width="2"/><line x1="18.71" x2="15" y1="18.71" y2="15" fill="none" stroke="#231f20" stroke-linecap="round" stroke-linejoin="round" stroke-width="2"/><line x1="35" x2="29" y1="13" y2="19" fill="none" stroke="#231f20" stroke-linecap="round" stroke-linejoin="round" stroke-width="2"/><line x1="13.73" x2="10" y1="34.27" y2="38" fill="none" stroke="#231f20" stroke-linecap="round" stroke-linejoin="round" stroke-width="2"/><line x1="36.88" x2="32.29" y1="36.88" y2="32.29" fill="none" stroke="#231f20" stroke-linecap="round" stroke-linejoin="round" stroke-width="2"/><path fill="none" stroke="#231f20" stroke-linecap="round" stroke-linejoin="round" stroke-width="2" d="M26,25.5v1a3.5,3.5,0,0,1-7,0v-1A3.5,3.5,0,0,1,22.5,22,3.52,3.52,0,0,1,26,25.5Z"/><path fill="none" stroke="#231f20" stroke-linecap="round" stroke-linejoin="round" stroke-width="2" d="M16,36.77l0,0V35.5a6.5,6.5,0,0,1,4.45-6.17,3.47,3.47,0,0,0,4.1,0A6.59,6.59,0,0,1,27.1,30.9,6.51,6.51,0,0,1,29,35.5v1.24l0,0"/></svg>